<svg xmlns="http://www.w3.org/2000/svg" width="191.906" height="148.06"><path data-name="Responsive Design For Modern Screens. Attribute as Freepik from Flaticon.com" d="M-.014 148.05h75.212V36.97H-.014v111.08zm39.193-5.57a3.57 3.57 0 1 1 3.627-3.57 3.6 3.6 0 0 1-3.627 3.57zm-28.316-94.8H64.33v81.95H10.863V47.68zm26.322-37.23h120.53v48.16h10.622V0H26.565v32.22h10.62V10.45zm42.861 71.13h55.857v10.45H80.046V81.58zm61.348-18.92v83.65h50.514V62.66h-50.514zm26.379 3.47a1.2 1.2 0 1 1-1.223 1.2 1.2 1.2 0 0 1 1.223-1.2zm-7.265 4.01h14.529v1.15h-14.53v-1.15zm6.787 72.56a2.87 2.87 0 1 1 2.915-2.87 2.9 2.9 0 0 1-2.915 2.87zm16.508-9.85c-13.119.08-27.8.12-34.3.07V75.4h34.3v57.45zM95.418 96.31H80.046v6.34h37.441v2.77H80.046v5.73h55.857V96.31H95.418z" fill="#005494" fill-rule="evenodd"/></svg>