<svg xmlns="http://www.w3.org/2000/svg" width="75" height="132"><path data-name="Apple IPhone. Attribute as Freepik from Flaticon.com" d="M65.36 0H9.635A9.623 9.623 0 0 0 .003 9.62v112.77A9.621 9.621 0 0 0 9.635 132h55.72a9.63 9.63 0 0 0 9.642-9.61V9.62A9.624 9.624 0 0 0 65.36 0zM23.745 5.84H51.26c.695 0 1.255 1.04 1.255 2.32s-.56 2.32-1.255 2.32H23.745c-.695 0-1.25-1.04-1.25-2.32s.555-2.32 1.25-2.32zM37.5 122.51a6.135 6.135 0 1 1 6.153-6.14 6.151 6.151 0 0 1-6.153 6.14zm30.276-21.02H7.227V16.23h60.551v85.26z" fill="#005494" fill-rule="evenodd"/></svg>