<svg xmlns="http://www.w3.org/2000/svg" width="24" height="19.5"><path d="M23.992 2.32a9.921 9.921 0 0 1-2.828.77A4.927 4.927 0 0 0 23.329.37a9.926 9.926 0 0 1-3.127 1.19 4.927 4.927 0 0 0-8.39 4.49A13.95 13.95 0 0 1 1.663.91a4.923 4.923 0 0 0 1.524 6.57 4.81 4.81 0 0 1-2.23-.61v.06a4.94 4.94 0 0 0 3.95 4.83 5.035 5.035 0 0 1-1.3.17 4.723 4.723 0 0 1-.927-.09 4.925 4.925 0 0 0 4.6 3.42 9.884 9.884 0 0 1-6.115 2.11A11.354 11.354 0 0 1-.01 17.3 14.006 14.006 0 0 0 21.547 5.5c0-.21 0-.42-.014-.63a10.044 10.044 0 0 0 2.459-2.55z" fill="#fff" fill-rule="evenodd"/></svg>