<svg xmlns="http://www.w3.org/2000/svg" width="23.938" height="16.16"><path d="M9.654 7.22s2.267-.18 2.267-3.01a3.907 3.907 0 0 0-4.2-4.22H-.008v15.83h7.729s4.717.16 4.717-4.67c-.002 0 .203-3.93-2.784-3.93zM3.395 2.81h4.323s1.05 0 1.05 1.64-.618 1.89-1.32 1.89H3.4V2.81zm4.1 10.2h-4.1V8.78h4.323s1.566-.02 1.566 2.17c0 1.85-1.17 2.05-1.784 2.06zm11.23-8.99c-5.713 0-5.708 6.08-5.708 6.08s-.392 6.05 5.708 6.05c0 0 5.082.31 5.082-4.21H21.2s.086 1.7-2.382 1.7a2.462 2.462 0 0 1-2.615-2.75h7.7s.839-6.87-5.174-6.87zm2.324 4.76H16.17a2.752 2.752 0 0 1 2.614-2.44c2.296 0 2.269 2.44 2.269 2.44zm.61-7.86h-6.13v1.95h6.128V.92z" fill="#fff" fill-rule="evenodd"/></svg>